<svg xmlns="http://www.w3.org/2000/svg" version="1.1" xmlns:xlink="http://www.w3.org/1999/xlink" xmlns:svgjs="http://svgjs.dev/svgjs" width="1500" height="1500" viewBox="0 0 1500 1500"><rect width="1500" height="1500" fill="#ffffff"></rect><g transform="matrix(0.6666666666666666,0,0,0.6666666666666666,249.39393939393938,452.07747547214467)"><svg viewBox="0 0 396 236" data-background-color="#ffffff" preserveAspectRatio="xMidYMid meet" height="893" width="1500" xmlns="http://www.w3.org/2000/svg" xmlns:xlink="http://www.w3.org/1999/xlink"><g id="tight-bounds" transform="matrix(1,0,0,1,0.2400000000000091,0.10142629659664237)"><svg viewBox="0 0 395.52 235.79714740680672" height="235.79714740680672" width="395.52"><g><svg viewBox="0 0 395.52 235.79714740680672" height="235.79714740680672" width="395.52"><g transform="matrix(1,0,0,1,0,142.48450579489023)"><svg viewBox="0 0 395.52 93.31264161191649" height="93.31264161191649" width="395.52"><g id="textblocktransform"><svg viewBox="0 0 395.52 93.31264161191649" height="93.31264161191649" width="395.52" id="textblock"><g><svg viewBox="0 0 395.52 57.29695135135135" height="57.29695135135135" width="395.52"><g transform="matrix(1,0,0,1,0,0)"><svg width="395.52" viewBox="0.46 -31.88 225.81 32.71" height="57.29695135135135" data-palette-color="#836207"><path d="M3.83-17.77L3.83-6.52Q3.83-2.78 5.29-1.11 6.74 0.56 9.28 0.56L9.28 0.56Q13.67 0.56 16.26-3.2L16.26-3.2 16.58-3.2 16.58-2.98Q16.58-1.39 17.49-0.42 18.41 0.56 20.17 0.56L20.17 0.56Q21.24 0.56 21.97 0.46 22.71 0.37 23.85 0.1L23.85 0.1 24.07-1.93 22.95-2.17Q21.95-2.39 21.44-2.64 20.92-2.88 20.62-3.48 20.31-4.08 20.31-5.25L20.31-5.25 20.31-20.97 19.8-21.56 12.62-20.9 12.38-18.65 16.26-17.63 16.26-4.66Q15.38-3.76 14.32-3.27 13.26-2.78 11.72-2.78L11.72-2.78Q7.96-2.78 7.96-7.74L7.96-7.74 7.96-20.97 7.35-21.56 0.81-21.04 0.46-19.12 3.83-17.77ZM36.69 0L37.03-1.93 33.4-2.78 33.4-16.48Q34.3-17.48 35.57-18.03 36.84-18.58 38.21-18.58L38.21-18.58Q40.13-18.58 41.29-17.47 42.45-16.36 42.45-14.09L42.45-14.09 42.45-2.78 39.08-1.78 38.84 0 49.8 0 50.05-1.93 46.53-2.78 46.53-15.04Q46.53-18.33 45.02-20.14 43.5-21.95 40.65-21.95L40.65-21.95Q38.5-21.95 36.59-20.85 34.69-19.75 33.3-18.09L33.3-18.09 33.05-18.09 33.47-21.22 33.05-21.68 25.78-20.73 25.53-18.87 29.29-17.6 29.29-2.78 25.61-1.78 25.36 0 36.69 0ZM57.05-26.12Q57.83-26.12 58.53-26.53 59.22-26.93 59.63-27.61 60.03-28.3 60.03-29.1L60.03-29.1Q60.03-30.27 59.15-31.08 58.27-31.88 57.05-31.88L57.05-31.88Q55.88-31.88 55.01-31.09 54.15-30.3 54.15-29.15L54.15-29.15Q54.15-28.34 54.54-27.65 54.93-26.95 55.6-26.54 56.27-26.12 57.05-26.12L57.05-26.12ZM51.24 0L62.96 0 63.23-1.95 59.32-2.83 59.32-21 58.71-21.61 51.85-21.04 51.53-19.19 55.22-17.85 55.22-2.83 51.53-1.93 51.24 0ZM63.35-19.48L66.33-18.46 73.11 0.68 76.21 0.24 82.88-18.51 85.51-19.51 85.81-21.31 76.46-21.31 76.12-19.48 80.05-18.46 75.36-4.74 70.77-18.51 74.31-19.51 74.5-21.31 63.59-21.31 63.35-19.48ZM96.03 0.73Q98.43 0.73 100.51-0.13 102.6-1 104.07-2.54L104.07-2.54 103.55-3.83Q102.36-3.2 101.45-2.91 100.55-2.61 99.87-2.55 99.18-2.49 98.01-2.49L98.01-2.49Q95.86-2.49 94.36-3.72 92.86-4.96 92.08-6.88 91.3-8.81 91.2-10.86L91.2-10.86 103.02-11.01Q103.16-11.65 103.29-12.63 103.41-13.62 103.41-14.18L103.41-14.18Q103.41-16.67 102.54-18.42 101.67-20.17 100.19-21.06 98.7-21.95 96.89-21.95L96.89-21.95Q94.45-21.95 92.13-20.56 89.81-19.17 88.33-16.55 86.86-13.94 86.86-10.45L86.86-10.45Q86.86-6.91 88.15-4.37 89.44-1.83 91.55-0.55 93.67 0.73 96.03 0.73L96.03 0.73ZM95.69-19.56Q99.06-19.56 99.06-15.01L99.06-15.01Q99.06-14.65 99.03-14.12 98.99-13.6 98.92-13.33L98.92-13.33 91.25-12.77Q91.37-15.01 92.04-16.54 92.71-18.07 93.69-18.81 94.67-19.56 95.69-19.56L95.69-19.56ZM119.59 0L119.84-2.12 114.15-2.95 114.15-12.3Q114.39-14.04 115.11-15.23 115.83-16.43 116.71-17.03 117.59-17.63 118.32-17.63L118.32-17.63Q119.03-17.63 119.81-17.37 120.59-17.11 121.3-16.67L121.3-16.67Q122.69-17.85 122.69-19.38L122.69-19.38Q122.69-20.48 121.94-21.3 121.18-22.12 119.98-22.12L119.98-22.12Q118.88-22.12 117.76-21.37 116.64-20.63 115.64-19.14 114.64-17.65 114-15.53L114-15.53 113.54-15.53 114.03-21.14 113.46-21.73 106.46-20.83 106.12-18.97 110.09-17.77 110.09-2.78 106.36-1.81 106.12 0 119.59 0ZM131.38 0.83Q133.26 0.83 135.01 0.02 136.75-0.78 137.83-2.21 138.9-3.64 138.9-5.37L138.9-5.37Q138.9-7.01 138.05-8.26 137.19-9.52 135.98-10.38 134.78-11.23 132.82-12.3L132.82-12.3Q131.21-13.21 130.31-13.82 129.4-14.43 128.79-15.22 128.18-16.02 128.18-16.99L128.18-16.99Q128.18-18.21 128.93-19.07 129.67-19.92 130.92-19.92L130.92-19.92Q132.33-19.92 133.31-18.54 134.29-17.16 134.73-14.38L134.73-14.38Q136.31-14.48 137.23-15.36 138.14-16.24 138.14-17.63L138.14-17.63Q138.14-18.85 137.4-19.84 136.65-20.83 135.29-21.4 133.92-21.97 132.16-21.97L132.16-21.97Q129.84-21.97 128.2-20.98 126.55-20 125.72-18.51 124.89-17.02 124.89-15.5L124.89-15.5Q124.89-13.75 125.78-12.4 126.67-11.06 127.93-10.14 129.18-9.23 131.19-8.08L131.19-8.08Q132.65-7.25 133.47-6.7 134.29-6.15 134.82-5.48 135.36-4.81 135.36-4.03L135.36-4.03Q135.36-2.76 134.46-2.16 133.55-1.56 132.14-1.56L132.14-1.56Q130.62-1.56 129.36-2.77 128.09-3.98 127.28-6.37L127.28-6.37Q125.91-6.27 125.11-5.3 124.3-4.32 124.3-2.95L124.3-2.95Q124.3-1.98 125.18-1.1 126.06-0.22 127.67 0.31 129.28 0.83 131.38 0.83L131.38 0.83ZM146.03 0.59Q148.66 0.59 150.34-0.62 152.01-1.83 152.72-3.2L152.72-3.2 152.99-3.2 152.99-2.83Q152.99-2.03 153.36-1.28 153.74-0.54 154.6-0.05 155.45 0.44 156.77 0.44L156.77 0.44Q157.8 0.44 158.97 0.17L158.97 0.17Q159.72 0.02 160.09-0.02L160.09-0.02 160.41-2.12 159.19-2.34Q158.04-2.54 157.47-2.87 156.89-3.2 156.67-3.82 156.45-4.44 156.45-5.62L156.45-5.62 156.45-14.48Q156.45-18.38 155.05-20.18 153.64-21.97 150.42-21.97L150.42-21.97Q148.71-21.97 146.74-21.26 144.76-20.56 143.42-19.4 142.07-18.24 142.07-16.97L142.07-16.97Q142.07-15.38 143.05-14.92 144.03-14.45 145.47-14.45L145.47-14.45Q145.69-16.92 145.84-17.85 146-18.77 146.52-19.24 147.03-19.7 148.18-19.7L148.18-19.7Q150.5-19.7 151.5-17.86 152.5-16.02 152.5-13.18L152.5-13.18 152.5-11.84Q148.69-11.57 146.16-10.44 143.63-9.3 142.44-7.64 141.24-5.98 141.24-4.1L141.24-4.1Q141.24-2.66 141.89-1.6 142.54-0.54 143.63 0.02 144.73 0.59 146.03 0.59L146.03 0.59ZM152.5-10.45L152.5-4.59Q151.76-3.78 150.59-3.1 149.42-2.42 148.25-2.42L148.25-2.42Q147.39-2.42 146.77-2.86 146.15-3.3 145.83-3.96 145.51-4.61 145.51-5.25L145.51-5.25Q145.51-7.13 147.1-8.41 148.69-9.69 152.5-10.45L152.5-10.45ZM160.6 0L172.27 0 172.56-1.95 168.68-2.83 168.68-31.13 168.07-31.71 161.04-31.18 160.75-29.32 164.6-28 164.6-2.83 160.87-1.93 160.6 0ZM179.61 0L191.04 0 191.31-1.95 186.77-3.03 189.23-10.55 199.46-10.55 202.12-3.15 197.95-1.81 197.66 0 210.23 0 210.45-1.95 207.1-3.03 197.58-30.96 193.9-30.2 183.47-3.15 179.83-1.81 179.61 0ZM190.16-13.04L194.7-25.24 198.75-13.04 190.16-13.04ZM212.67-28.52L217.11-27.49 217.11-2.95 213.03-1.81 212.84 0 226.02 0 226.27-1.95 221.85-2.78 221.85-27.59 225.97-28.52 226.22-30.37 212.94-30.37 212.67-28.52Z" opacity="1" transform="matrix(1,0,0,1,0,0)" fill="#000000" class="wordmark-text-0" data-fill-palette-color="primary" id="text-0"></path></svg></g></svg></g><g transform="matrix(1,0,0,1,0,70.82338643857298)"><svg viewBox="0 0 395.52 22.48925517334352" height="22.48925517334352" width="395.52"><g transform="matrix(1,0,0,1,0,0)"><svg width="395.52" viewBox="0.34375 -40.45 834.41625 47.45" height="22.48925517334352" data-palette-color="#0f100c"><path d="M28.15-1.2L17.15-34.8 6.2-1.2 6.2-1.25Q5.9-0.5 5.38-0.03 4.85 0.45 4.1 0.45L4.1 0.45Q3.7 0.45 3.33 0.38 2.95 0.3 2.55 0.2L2.55 0.2 2.6 0.2Q-0.25-0.7 0.5-3L0.5-3 11.9-37.65Q12.15-38.45 12.78-39 13.4-39.55 14.25-39.65L14.25-39.65Q15.1-39.8 15.9-39.88 16.7-39.95 17.15-39.95L17.15-39.95Q17.6-39.95 18.4-39.88 19.2-39.8 20.05-39.7L20.05-39.7Q20.75-39.6 21.43-38.95 22.1-38.3 22.45-37.65L22.45-37.65Q25.25-29.05 28.13-20.33 31-11.6 33.8-3L33.8-3Q34.5-0.7 31.7 0.2L31.7 0.2Q31.3 0.3 30.98 0.38 30.65 0.45 30.25 0.45L30.25 0.45Q29.55 0.45 28.98-0.03 28.4-0.5 28.15-1.25L28.15-1.25 28.15-1.2ZM20.9-12L20.9-12Q20.9-10.4 19.78-9.28 18.65-8.15 17.05-8.15L17.05-8.15Q15.45-8.15 14.35-9.28 13.25-10.4 13.25-12L13.25-12Q13.25-13.6 14.35-14.73 15.45-15.85 17.05-15.85L17.05-15.85Q18.65-15.85 19.78-14.73 20.9-13.6 20.9-12ZM44.45-37.55L44.45-2.1Q44.45 0.3 41.45 0.3L41.45 0.3Q38.5 0.3 38.5-2.1L38.5-2.1 38.5-37.55Q38.5-39.95 41.45-39.95L41.45-39.95Q44.45-39.95 44.45-37.55L44.45-37.55ZM73.94-25.4L73.94-2.1Q73.94 0.3 71.14 0.3L71.14 0.3Q68.39 0.3 68.39-2.1L68.39-2.1 68.39-25.4 65.99-25.4Q64.19-25.4 64.09-27.75L64.09-27.75Q64.09-30.1 65.99-30.1L65.99-30.1 68.39-30.1 68.39-32.5Q68.39-34.55 68.97-35.98 69.54-37.4 70.84-38.15L70.84-38.15 70.84-38.1Q72.14-38.9 73.52-39.35 74.89-39.8 76.44-39.8L76.44-39.8 77.64-39.8Q79.49-39.8 79.49-37.45L79.49-37.45Q79.59-35.1 77.64-35.1L77.64-35.1 76.84-35.1Q75.89-35.1 75.32-34.93 74.74-34.75 74.44-34.4 74.14-34.05 74.04-33.55 73.94-33.05 73.94-32.45L73.94-32.45 73.94-30.1 77.69-30.1Q79.64-30.1 79.54-27.75L79.54-27.75Q79.54-25.4 77.69-25.4L77.69-25.4 73.94-25.4ZM91.79-30.1L99.79-30.1Q101.09-30.1 102.47-29.55 103.84-29 105.14-28.15L105.14-28.15 105.09-28.15Q106.39-27.2 107.09-25.68 107.79-24.15 107.79-22.15L107.79-22.15 107.79-7.95Q107.79-3.85 105.09-1.9L105.09-1.9Q102.44 0 99.79 0L99.79 0 91.79 0Q90.49 0 89.14-0.45 87.79-0.9 86.49-1.9L86.49-1.9Q83.79-3.8 83.79-7.95L83.79-7.95 83.79-22.15Q83.79-24.15 84.49-25.68 85.19-27.2 86.49-28.15L86.49-28.15 86.44-28.15Q87.69-29 89.09-29.55 90.49-30.1 91.79-30.1L91.79-30.1ZM92.69-4.7L98.89-4.7Q100.74-4.7 101.52-5.75 102.29-6.8 102.29-8L102.29-8 102.29-22.1Q102.29-23.35 101.52-24.38 100.74-25.4 98.89-25.4L98.89-25.4 92.69-25.4Q90.84-25.4 90.07-24.38 89.29-23.35 89.29-22.1L89.29-22.1 89.29-8Q89.29-6.8 90.07-5.75 90.84-4.7 92.69-4.7L92.69-4.7ZM119.49-22.75L119.49-2.1Q119.49 0.3 116.74 0.3L116.74 0.3Q113.89 0.3 113.89-2.1L113.89-2.1 113.89-22.8Q113.89-26.9 116.34-28.5L116.34-28.5Q118.79-30.1 121.99-30.1L121.99-30.1 127.69-30.1Q129.54-30.1 129.54-27.75L129.54-27.75Q129.64-25.4 127.69-25.4L127.69-25.4 122.39-25.4Q120.59-25.4 120.04-24.7 119.49-24 119.49-22.75L119.49-22.75ZM170.38-2.1L170.38-37.55Q170.38-39.95 173.33-39.95L173.33-39.95Q176.33-39.95 176.33-37.55L176.33-37.55 176.33-2.1Q176.33 0.3 173.33 0.3L173.33 0.3Q170.38 0.3 170.38-2.1L170.38-2.1ZM155.18-37.55L155.18-2.1Q155.18 0.3 152.18 0.3L152.18 0.3Q149.23 0.3 149.23-2.1L149.23-2.1 149.23-37.55Q149.23-39.95 152.18-39.95L152.18-39.95Q155.18-39.95 155.18-37.55L155.18-37.55ZM166.88-20.65L166.88-20.65Q166.88-18.9 165.68-17.7 164.48-16.5 162.73-16.5L162.73-16.5Q161.03-16.5 159.83-17.7 158.63-18.9 158.63-20.65L158.63-20.65Q158.63-22.4 159.83-23.6 161.03-24.8 162.73-24.8L162.73-24.8Q164.48-24.8 165.68-23.6 166.88-22.4 166.88-20.65ZM188.68-22.15L188.68-8Q188.68-6.8 189.46-5.75 190.23-4.7 192.08-4.7L192.08-4.7 198.33-4.7Q200.18-4.7 200.96-5.63 201.73-6.55 201.73-7.75L201.73-7.75 201.73-8.3Q201.73-10.65 204.48-10.65L204.48-10.65Q207.23-10.65 207.23-8.3L207.23-8.3 207.23-7.7Q207.23-5.6 206.56-4.25 205.88-2.9 204.53-1.9L204.53-1.9Q201.88 0 199.23 0L199.23 0 190.83 0Q188.18 0 185.68-1.9L185.68-1.9Q184.48-2.9 183.83-4.42 183.18-5.95 183.18-7.95L183.18-7.95 183.18-22.2Q183.18-26.25 185.68-28.2L185.68-28.2Q186.93-29.1 188.26-29.63 189.58-30.15 190.83-30.15L190.83-30.15 199.23-30.15Q200.43-30.15 201.88-29.68 203.33-29.2 204.58-28.4L204.58-28.4Q205.78-27.55 206.51-26.05 207.23-24.55 207.23-22.5L207.23-22.5 207.23-15.75Q207.23-14.6 206.56-13.7 205.88-12.8 204.08-12.8L204.08-12.8 193.28-12.8Q191.48-12.8 191.38-15.15L191.38-15.15Q191.38-17.5 193.28-17.5L193.28-17.5 201.78-17.5 201.73-22.15Q201.73-23.4 200.96-24.43 200.18-25.45 198.33-25.45L198.33-25.45 192.08-25.45Q190.23-25.45 189.46-24.43 188.68-23.4 188.68-22.15L188.68-22.15ZM227.68 0L221.13 0Q219.58 0 218.18-0.43 216.78-0.85 215.48-1.65L215.48-1.65 215.48-1.6Q213.03-3.15 213.03-7.3L213.03-7.3 213.03-9.75Q213.03-11.8 213.75-13.33 214.48-14.85 215.78-15.75L215.78-15.75 215.73-15.75Q216.98-16.6 218.38-17.03 219.78-17.45 221.08-17.45L221.08-17.45 232.13-17.45 232.13-22.1Q232.13-23.35 231.35-24.38 230.58-25.4 228.73-25.4L228.73-25.4 222.88-25.4Q220.98-25.4 220.25-24.48 219.53-23.55 219.53-22.3L219.53-22.3 219.53-21.9Q219.53-19.3 216.73-19.3L216.73-19.3Q213.93-19.3 213.93-21.9L213.93-21.9 213.93-22.35Q213.93-24.4 214.65-25.8 215.38-27.2 216.63-28.15L216.63-28.15 216.58-28.15Q217.88-29 219.3-29.55 220.73-30.1 222.03-30.1L222.03-30.1 229.63-30.1Q230.88-30.1 232.3-29.55 233.73-29 234.98-28.15L234.98-28.15 234.93-28.15Q236.23-27.2 236.93-25.68 237.63-24.15 237.63-22.15L237.63-22.15 237.63-2.1Q237.63 0.3 234.88 0.3L234.88 0.3Q234.33 0.3 233.85 0.25 233.38 0.2 233-0.03 232.63-0.25 232.4-0.68 232.18-1.1 232.18-1.8L232.18-1.8 232.13-12.75 222.03-12.75Q220.93-12.75 220.33-12.5 219.73-12.25 219.38-11.7L219.38-11.7Q218.98-10.85 218.8-10.38 218.63-9.9 218.63-9.3L218.63-9.3 218.63-7.35Q218.63-6.05 219.4-5.38 220.18-4.7 222.08-4.7L222.08-4.7 227.68-4.7Q229.53-4.7 229.53-2.35L229.53-2.35Q229.53-1.35 229.08-0.68 228.63 0 227.68 0L227.68 0ZM249.78-37.8L249.78-1.95Q249.78 0.4 247.03 0.4L247.03 0.4Q244.23 0.4 244.23-1.95L244.23-1.95 244.23-37.8Q244.23-40.15 247.03-40.15L247.03-40.15Q249.78-40.15 249.78-37.8L249.78-37.8ZM267.37-25.4L263.22-25.4 263.22-7.2Q263.22-5.9 263.77-5.2 264.32-4.5 266.12-4.5L266.12-4.5 267.42-4.5Q269.37-4.5 269.27-2.2L269.27-2.2Q269.27 0.15 267.42 0.15L267.42 0.15 265.77 0.15Q264.17 0.15 262.77-0.28 261.37-0.7 260.07-1.5L260.07-1.5 260.07-1.45Q257.62-3.05 257.62-7.15L257.62-7.15 257.62-25.4 255.67-25.4Q253.87-25.4 253.77-27.75L253.77-27.75Q253.77-30.1 255.67-30.1L255.67-30.1 257.62-30.1 257.62-35.45Q257.62-37.85 260.47-37.85L260.47-37.85Q263.22-37.85 263.22-35.45L263.22-35.45 263.22-30.1 267.37-30.1Q269.32-30.1 269.22-27.75L269.22-27.75Q269.22-25.4 267.37-25.4L267.37-25.4ZM279.12-25.4L279.12-2.1Q279.12 0.3 276.37 0.3L276.37 0.3Q273.62 0.3 273.62-2.1L273.62-2.1 273.62-37.6Q273.62-40 276.37-40L276.37-40Q279.12-40 279.12-37.6L279.12-37.6 279.12-30.1 289.67-30.1Q292.22-30.1 294.97-28.2L294.97-28.2Q297.67-26.3 297.67-22.2L297.67-22.2 297.67-2.1Q297.67 0.3 294.92 0.3L294.92 0.3Q292.17 0.3 292.17-2.1L292.17-2.1 292.17-21.75Q292.17-23.05 291.37-24.25L291.37-24.25 291.42-24.2Q290.77-25.4 288.77-25.4L288.77-25.4 279.12-25.4ZM304.37 3.95L304.37 3.95Q305.97 3.1 306.87 2.27 307.77 1.45 307.87 0.05L307.87 0.05Q306.17-0.25 305.02-1.4 303.87-2.55 303.87-4.1L303.87-4.1Q303.87-5.75 305.02-6.93 306.17-8.1 307.87-8.1L307.87-8.1Q309.52-8.1 310.67-6.98 311.82-5.85 311.92-4.1L311.92-4.1Q312.17 0.35 310.12 2.3L310.12 2.3Q309.17 3.35 308.14 4.08 307.12 4.8 306.22 5.1L306.22 5.1Q305.47 5.4 304.77 5.4L304.77 5.4Q304.62 5.4 304.39 5.3 304.17 5.2 304.02 5.1L304.02 5.1Q303.57 4.4 304.37 3.95ZM351.66-14.7L344.76-14.7Q343.91-14.7 343.44-15.38 342.96-16.05 342.96-17.2L342.96-17.2Q342.96-19.75 345.06-19.75L345.06-19.75 350.36-19.75Q352.21-19.75 352.99-20.8 353.76-21.85 353.76-23.1L353.76-23.1 353.76-31.3Q353.76-32.55 352.99-33.6 352.21-34.65 350.36-34.65L350.36-34.65 339.86-34.65 339.86-2Q339.86 0.4 336.86 0.4L336.86 0.4Q333.96 0.4 333.96-2L333.96-2 333.96-36.7Q333.96-38.5 334.86-39.1 335.76-39.7 337.06-39.7L337.06-39.7 351.66-39.7Q352.91-39.7 354.31-39.15 355.71-38.6 357.01-37.75L357.01-37.75 356.96-37.75Q358.26-36.8 358.96-35.27 359.66-33.75 359.66-31.75L359.66-31.75 359.66-22.7Q359.66-18.65 356.96-16.65L356.96-16.65Q355.66-15.7 354.31-15.2 352.96-14.7 351.66-14.7L351.66-14.7ZM374.81-30.1L382.81-30.1Q384.11-30.1 385.49-29.55 386.86-29 388.16-28.15L388.16-28.15 388.11-28.15Q389.41-27.2 390.11-25.68 390.81-24.15 390.81-22.15L390.81-22.15 390.81-7.95Q390.81-3.85 388.11-1.9L388.11-1.9Q385.46 0 382.81 0L382.81 0 374.81 0Q373.51 0 372.16-0.45 370.81-0.9 369.51-1.9L369.51-1.9Q366.81-3.8 366.81-7.95L366.81-7.95 366.81-22.15Q366.81-24.15 367.51-25.68 368.21-27.2 369.51-28.15L369.51-28.15 369.46-28.15Q370.71-29 372.11-29.55 373.51-30.1 374.81-30.1L374.81-30.1ZM375.71-4.7L381.91-4.7Q383.76-4.7 384.54-5.75 385.31-6.8 385.31-8L385.31-8 385.31-22.1Q385.31-23.35 384.54-24.38 383.76-25.4 381.91-25.4L381.91-25.4 375.71-25.4Q373.86-25.4 373.09-24.38 372.31-23.35 372.31-22.1L372.31-22.1 372.31-8Q372.31-6.8 373.09-5.75 373.86-4.7 375.71-4.7L375.71-4.7ZM411.16-15.6L407.61-1.55 407.66-1.6Q407.31-0.45 406.31-0.1 405.31 0.25 404.31 0.25L404.31 0.25Q403.36 0.25 402.33-0.1 401.31-0.45 401.01-1.6L401.01-1.6 401.06-1.55 394.51-27.45Q393.91-29.55 396.46-30.25L396.46-30.25Q398.91-30.9 399.61-28.55L399.61-28.55 399.61-28.6 403.66-12.3 405.01-12.3 409.06-28.6Q409.31-29.65 410.18-29.98 411.06-30.3 411.81-30.3L411.81-30.3Q412.66-30.3 413.48-29.93 414.31-29.55 414.61-28.6L414.61-28.6Q415.06-26.8 415.43-25.25 415.81-23.7 416.16-22.25 416.51-20.8 416.83-19.4 417.16-18 417.56-16.5L417.56-16.5 418.66-12.25 420.01-12.25Q421.01-16.3 422.03-20.43 423.06-24.55 424.06-28.6L424.06-28.6 424.01-28.55Q424.71-30.9 427.16-30.25L427.16-30.25Q429.71-29.65 429.11-27.45L429.11-27.45 422.61-1.55 422.66-1.6Q422.36-0.45 421.33-0.1 420.31 0.25 419.31 0.25L419.31 0.25Q418.36 0.25 417.36-0.1 416.36-0.45 416.01-1.6L416.01-1.6 416.06-1.55 412.51-15.6 411.16-15.6ZM438.51-22.15L438.51-8Q438.51-6.8 439.28-5.75 440.06-4.7 441.91-4.7L441.91-4.7 448.16-4.7Q450.01-4.7 450.78-5.63 451.56-6.55 451.56-7.75L451.56-7.75 451.56-8.3Q451.56-10.65 454.31-10.65L454.31-10.65Q457.06-10.65 457.06-8.3L457.06-8.3 457.06-7.7Q457.06-5.6 456.38-4.25 455.71-2.9 454.36-1.9L454.36-1.9Q451.71 0 449.06 0L449.06 0 440.66 0Q438.01 0 435.51-1.9L435.51-1.9Q434.31-2.9 433.66-4.42 433.01-5.95 433.01-7.95L433.01-7.95 433.01-22.2Q433.01-26.25 435.51-28.2L435.51-28.2Q436.76-29.1 438.08-29.63 439.41-30.15 440.66-30.15L440.66-30.15 449.06-30.15Q450.26-30.15 451.71-29.68 453.16-29.2 454.41-28.4L454.41-28.4Q455.61-27.55 456.33-26.05 457.06-24.55 457.06-22.5L457.06-22.5 457.06-15.75Q457.06-14.6 456.38-13.7 455.71-12.8 453.91-12.8L453.91-12.8 443.11-12.8Q441.31-12.8 441.21-15.15L441.21-15.15Q441.21-17.5 443.11-17.5L443.11-17.5 451.61-17.5 451.56-22.15Q451.56-23.4 450.78-24.43 450.01-25.45 448.16-25.45L448.16-25.45 441.91-25.45Q440.06-25.45 439.28-24.43 438.51-23.4 438.51-22.15L438.51-22.15ZM468.8-22.75L468.8-2.1Q468.8 0.3 466.05 0.3L466.05 0.3Q463.2 0.3 463.2-2.1L463.2-2.1 463.2-22.8Q463.2-26.9 465.65-28.5L465.65-28.5Q468.1-30.1 471.3-30.1L471.3-30.1 477-30.1Q478.85-30.1 478.85-27.75L478.85-27.75Q478.95-25.4 477-25.4L477-25.4 471.7-25.4Q469.9-25.4 469.35-24.7 468.8-24 468.8-22.75L468.8-22.75ZM488.6-22.15L488.6-8Q488.6-6.8 489.38-5.75 490.15-4.7 492-4.7L492-4.7 498.25-4.7Q500.1-4.7 500.88-5.63 501.65-6.55 501.65-7.75L501.65-7.75 501.65-8.3Q501.65-10.65 504.4-10.65L504.4-10.65Q507.15-10.65 507.15-8.3L507.15-8.3 507.15-7.7Q507.15-5.6 506.48-4.25 505.8-2.9 504.45-1.9L504.45-1.9Q501.8 0 499.15 0L499.15 0 490.75 0Q488.1 0 485.6-1.9L485.6-1.9Q484.4-2.9 483.75-4.42 483.1-5.95 483.1-7.95L483.1-7.95 483.1-22.2Q483.1-26.25 485.6-28.2L485.6-28.2Q486.85-29.1 488.18-29.63 489.5-30.15 490.75-30.15L490.75-30.15 499.15-30.15Q500.35-30.15 501.8-29.68 503.25-29.2 504.5-28.4L504.5-28.4Q505.7-27.55 506.43-26.05 507.15-24.55 507.15-22.5L507.15-22.5 507.15-15.75Q507.15-14.6 506.48-13.7 505.8-12.8 504-12.8L504-12.8 493.2-12.8Q491.4-12.8 491.3-15.15L491.3-15.15Q491.3-17.5 493.2-17.5L493.2-17.5 501.7-17.5 501.65-22.15Q501.65-23.4 500.88-24.43 500.1-25.45 498.25-25.45L498.25-25.45 492-25.45Q490.15-25.45 489.38-24.43 488.6-23.4 488.6-22.15L488.6-22.15ZM532.05-1.75L532.05-25.4 522.4-25.4Q520.35-25.4 519.7-24.2L519.7-24.2Q519-23.15 519-21.75L519-21.75 519-7.35Q519-6.05 519.8-5.38 520.6-4.7 522.45-4.7L522.45-4.7 527.6-4.7Q529.4-4.7 529.4-2.35L529.4-2.35Q529.4-1.35 528.97-0.68 528.55 0 527.6 0L527.6 0 521.55 0Q518.4 0 515.95-1.6L515.95-1.6Q513.5-3.1 513.5-7.3L513.5-7.3 513.5-22.2Q513.5-24.25 514.15-25.75 514.8-27.25 516.2-28.2L516.2-28.2Q518.85-30.1 521.5-30.1L521.5-30.1 532.05-30.1 532.05-37.6Q532.05-40 534.8-40L534.8-40Q537.55-40 537.55-37.6L537.55-37.6 537.55-2.1Q537.55 0.3 534.8 0.3L534.8 0.3Q533.75 0.3 532.9-0.08 532.05-0.45 532.05-1.75L532.05-1.75ZM564.64-25.4L564.59-2.1Q564.59-0.9 563.74-0.3 562.89 0.3 561.89 0.3L561.89 0.3Q559.14 0.3 559.14-2.1L559.14-2.1 559.14-37.6Q559.14-40 561.89-40L561.89-40Q564.64-40 564.64-37.6L564.64-37.6 564.64-30.1 575.19-30.1Q577.74-30.1 580.49-28.2L580.49-28.2Q583.19-26.3 583.19-22.2L583.19-22.2 583.19-7.3Q583.19-3.15 580.74-1.6L580.74-1.6Q578.29 0 575.14 0L575.14 0 569.24 0Q567.44 0 567.34-2.35L567.34-2.35Q567.34-4.7 569.24-4.7L569.24-4.7 574.24-4.7Q576.09-4.7 576.89-5.38 577.69-6.05 577.69-7.35L577.69-7.35 577.69-21.75Q577.69-23.05 576.89-24.25L576.89-24.25 576.94-24.2Q576.29-25.4 574.29-25.4L574.29-25.4 564.64-25.4ZM593.54 7L590.94 7Q589.19 7 589.09 4.65L589.09 4.65Q589.09 2.3 590.94 2.3L590.94 2.3 593.14 2.3Q594.89 2.3 595.44 1.25L595.44 1.25 596.14-0.6 596.39-1.4 586.64-26.95 586.64-26.9Q586.24-28.1 586.81-28.95 587.39-29.8 588.59-30.2L588.59-30.2Q589.49-30.45 590.04-30.45L590.04-30.45Q591.49-30.45 591.84-28.75L591.84-28.75 595.79-18.9 599.14-10.7 604.49-28.65Q604.94-30.45 606.59-30.45L606.59-30.45Q606.99-30.45 607.89-30.2L607.89-30.2Q609.09-29.85 609.61-29.05 610.14-28.25 609.84-27.15L609.84-27.15Q607.59-19.5 605.26-11.75 602.94-4 600.69 3.6L600.69 3.6Q600.44 4.15 599.91 4.73 599.39 5.3 598.54 5.83 597.69 6.35 596.44 6.68 595.19 7 593.54 7L593.54 7ZM642.88-34.65L642.88-2Q642.88 0.4 639.88 0.4L639.88 0.4Q636.93 0.4 636.93-2L636.93-2 636.93-34.65 628.18-34.65Q626.38-34.65 626.28-37.2L626.28-37.2Q626.28-39.7 628.18-39.7L628.18-39.7 651.63-39.7Q653.53-39.7 653.43-37.2L653.43-37.2Q653.43-34.65 651.63-34.65L651.63-34.65 642.88-34.65ZM662.83-22.75L662.83-2.1Q662.83 0.3 660.08 0.3L660.08 0.3Q657.23 0.3 657.23-2.1L657.23-2.1 657.23-22.8Q657.23-26.9 659.68-28.5L659.68-28.5Q662.13-30.1 665.33-30.1L665.33-30.1 671.03-30.1Q672.88-30.1 672.88-27.75L672.88-27.75Q672.98-25.4 671.03-25.4L671.03-25.4 665.73-25.4Q663.93-25.4 663.38-24.7 662.83-24 662.83-22.75L662.83-22.75ZM691.23 0L684.68 0Q683.13 0 681.73-0.43 680.33-0.85 679.03-1.65L679.03-1.65 679.03-1.6Q676.58-3.15 676.58-7.3L676.58-7.3 676.58-9.75Q676.58-11.8 677.3-13.33 678.03-14.85 679.33-15.75L679.33-15.75 679.28-15.75Q680.53-16.6 681.93-17.03 683.33-17.45 684.63-17.45L684.63-17.45 695.68-17.45 695.68-22.1Q695.68-23.35 694.9-24.38 694.13-25.4 692.28-25.4L692.28-25.4 686.43-25.4Q684.53-25.4 683.8-24.48 683.08-23.55 683.08-22.3L683.08-22.3 683.08-21.9Q683.08-19.3 680.28-19.3L680.28-19.3Q677.48-19.3 677.48-21.9L677.48-21.9 677.48-22.35Q677.48-24.4 678.2-25.8 678.93-27.2 680.18-28.15L680.18-28.15 680.13-28.15Q681.43-29 682.85-29.55 684.28-30.1 685.58-30.1L685.58-30.1 693.18-30.1Q694.43-30.1 695.85-29.55 697.28-29 698.53-28.15L698.53-28.15 698.48-28.15Q699.78-27.2 700.48-25.68 701.18-24.15 701.18-22.15L701.18-22.15 701.18-2.1Q701.18 0.3 698.43 0.3L698.43 0.3Q697.88 0.3 697.4 0.25 696.93 0.2 696.55-0.03 696.18-0.25 695.95-0.68 695.73-1.1 695.73-1.8L695.73-1.8 695.68-12.75 685.58-12.75Q684.48-12.75 683.88-12.5 683.28-12.25 682.93-11.7L682.93-11.7Q682.53-10.85 682.35-10.38 682.18-9.9 682.18-9.3L682.18-9.3 682.18-7.35Q682.18-6.05 682.95-5.38 683.73-4.7 685.63-4.7L685.63-4.7 691.23-4.7Q693.08-4.7 693.08-2.35L693.08-2.35Q693.08-1.35 692.63-0.68 692.18 0 691.23 0L691.23 0ZM726.18-1.75L726.18-25.4 716.53-25.4Q714.48-25.4 713.83-24.2L713.83-24.2Q713.13-23.15 713.13-21.75L713.13-21.75 713.13-7.35Q713.13-6.05 713.93-5.38 714.73-4.7 716.58-4.7L716.58-4.7 721.73-4.7Q723.53-4.7 723.53-2.35L723.53-2.35Q723.53-1.35 723.1-0.68 722.68 0 721.73 0L721.73 0 715.68 0Q712.53 0 710.08-1.6L710.08-1.6Q707.63-3.1 707.63-7.3L707.63-7.3 707.63-22.2Q707.63-24.25 708.28-25.75 708.93-27.25 710.33-28.2L710.33-28.2Q712.98-30.1 715.63-30.1L715.63-30.1 726.18-30.1 726.18-37.6Q726.18-40 728.93-40L728.93-40Q731.68-40 731.68-37.6L731.68-37.6 731.68-2.1Q731.68 0.3 728.93 0.3L728.93 0.3Q727.88 0.3 727.03-0.08 726.18-0.45 726.18-1.75L726.18-1.75ZM743.92-27.9L743.92-2.1Q743.92 0.3 741.17 0.3L741.17 0.3Q738.37 0.3 738.37-2.1L738.37-2.1 738.37-27.9Q738.37-30.3 741.17-30.3L741.17-30.3Q743.92-30.3 743.92-27.9L743.92-27.9ZM744.97-36.6L744.97-36.6Q744.97-35 743.87-33.9 742.77-32.8 741.17-32.8L741.17-32.8Q739.57-32.8 738.45-33.9 737.32-35 737.32-36.6L737.32-36.6Q737.32-38.25 738.45-39.35 739.57-40.45 741.17-40.45L741.17-40.45Q742.77-40.45 743.87-39.35 744.97-38.25 744.97-36.6ZM761.57-25.4L757.42-25.4 757.42-7.2Q757.42-5.9 757.97-5.2 758.52-4.5 760.32-4.5L760.32-4.5 761.62-4.5Q763.57-4.5 763.47-2.2L763.47-2.2Q763.47 0.15 761.62 0.15L761.62 0.15 759.97 0.15Q758.37 0.15 756.97-0.28 755.57-0.7 754.27-1.5L754.27-1.5 754.27-1.45Q751.82-3.05 751.82-7.15L751.82-7.15 751.82-25.4 749.87-25.4Q748.07-25.4 747.97-27.75L747.97-27.75Q747.97-30.1 749.87-30.1L749.87-30.1 751.82-30.1 751.82-35.45Q751.82-37.85 754.67-37.85L754.67-37.85Q757.42-37.85 757.42-35.45L757.42-35.45 757.42-30.1 761.57-30.1Q763.52-30.1 763.42-27.75L763.42-27.75Q763.42-25.4 761.57-25.4L761.57-25.4ZM773.47-27.9L773.47-2.1Q773.47 0.3 770.72 0.3L770.72 0.3Q767.92 0.3 767.92-2.1L767.92-2.1 767.92-27.9Q767.92-30.3 770.72-30.3L770.72-30.3Q773.47-30.3 773.47-27.9L773.47-27.9ZM774.52-36.6L774.52-36.6Q774.52-35 773.42-33.9 772.32-32.8 770.72-32.8L770.72-32.8Q769.12-32.8 767.99-33.9 766.87-35 766.87-36.6L766.87-36.6Q766.87-38.25 767.99-39.35 769.12-40.45 770.72-40.45L770.72-40.45Q772.32-40.45 773.42-39.35 774.52-38.25 774.52-36.6ZM788.42-30.1L796.42-30.1Q797.72-30.1 799.09-29.55 800.47-29 801.77-28.15L801.77-28.15 801.72-28.15Q803.02-27.2 803.72-25.68 804.42-24.15 804.42-22.15L804.42-22.15 804.42-7.95Q804.42-3.85 801.72-1.9L801.72-1.9Q799.07 0 796.42 0L796.42 0 788.42 0Q787.12 0 785.77-0.45 784.42-0.9 783.12-1.9L783.12-1.9Q780.42-3.8 780.42-7.95L780.42-7.95 780.42-22.15Q780.42-24.15 781.12-25.68 781.82-27.2 783.12-28.15L783.12-28.15 783.07-28.15Q784.32-29 785.72-29.55 787.12-30.1 788.42-30.1L788.42-30.1ZM789.32-4.7L795.52-4.7Q797.37-4.7 798.14-5.75 798.92-6.8 798.92-8L798.92-8 798.92-22.1Q798.92-23.35 798.14-24.38 797.37-25.4 795.52-25.4L795.52-25.4 789.32-25.4Q787.47-25.4 786.69-24.38 785.92-23.35 785.92-22.1L785.92-22.1 785.92-8Q785.92-6.8 786.69-5.75 787.47-4.7 789.32-4.7L789.32-4.7ZM816.21-21.75L816.21-2.1Q816.21 0.3 813.46 0.3L813.46 0.3Q810.71 0.3 810.71-2.1L810.71-2.1 810.71-22.2Q810.71-24.25 811.36-25.75 812.01-27.25 813.41-28.2L813.41-28.2Q816.06-30.1 818.71-30.1L818.71-30.1 826.76-30.1Q829.31-30.1 832.06-28.2L832.06-28.2Q834.76-26.3 834.76-22.2L834.76-22.2 834.76-2.1Q834.76 0.3 832.01 0.3L832.01 0.3Q829.26 0.3 829.26-2.1L829.26-2.1 829.26-21.75Q829.26-23.05 828.46-24.25L828.46-24.25 828.51-24.2Q827.86-25.4 825.86-25.4L825.86-25.4 819.61-25.4Q817.56-25.4 816.91-24.2L816.91-24.2Q816.21-23.15 816.21-21.75L816.21-21.75Z" opacity="1" transform="matrix(1,0,0,1,0,0)" fill="#000000" class="slogan-text-1" data-fill-palette-color="secondary" id="text-1"></path></svg></g></svg></g></svg></g></svg></g><g transform="matrix(1,0,0,1,133.02616845807393,0)"><svg viewBox="0 0 129.46766308385213 128.9580707076686" height="128.9580707076686" width="129.46766308385213"><g><svg xmlns="http://www.w3.org/2000/svg" xmlns:xlink="http://www.w3.org/1999/xlink" version="1.1" x="0" y="0" viewBox="0.755 1 62.245 62" style="enable-background:new 0 0 64 64;" xml:space="preserve" height="128.9580707076686" width="129.46766308385213" class="icon-icon-0" data-fill-palette-color="accent" id="icon-0"><g fill="#122e42" data-fill-palette-color="accent"><circle cx="29.005" cy="16" r="1.0" fill="#000000" data-fill-palette-color="accent"></circle><circle cx="35.005" cy="16" r="1.0" fill="#000000" data-fill-palette-color="accent"></circle><path d="M28.111 19.447l0.105 0.21C28.938 21.103 30.391 22 32.006 22s3.066-0.897 3.786-2.338l0.106-0.211-1.785-0.901-0.108 0.215C33.624 19.526 32.858 20 32.006 20s-1.619-0.474-2-1.236L29.9 18.553 28.111 19.447z" fill="#000000" data-fill-palette-color="accent"></path><path d="M33 47.184V45h-2v2h-2v3c0 1.654 1.346 3 3 3 0.552 0 1 0.448 1 1v1h-1c-0.552 0-1-0.448-1-1v-1h-2v1c0 1.302 0.839 2.402 2 2.816V59h2v-2h2v-3c0-1.654-1.346-3-3-3-0.552 0-1-0.448-1-1v-1h1c0.552 0 1 0.448 1 1v1h2v-1C35 48.698 34.161 47.598 33 47.184z" fill="#000000" data-fill-palette-color="accent"></path><path d="M60.589 35.698l-2.772-0.555-0.468-1.871C57.015 31.934 55.817 31 54.438 31h-6.877c-0.753 0-1.445 0.285-1.978 0.755-0.263-0.773-0.642-1.506-1.141-2.171-1.21-1.615-2.974-2.687-4.965-3.019l-2.714-0.452-0.459-1.377c1.679-1.075 2.926-2.757 3.438-4.736h0.263c2.206 0 4-1.794 4-4 0-0.946-0.344-1.806-0.896-2.491l0.72-2.685c0.117-0.464 0.176-0.942 0.176-1.421 0-2.454-1.55-4.666-3.855-5.504l-6.579-2.392C32.649 1.17 31.684 1 30.703 1c-2.629 0-5.14 1.255-6.716 3.358l-0.508 0.676C21.522 5.292 20.006 6.973 20.006 9c0 1.609 0.565 3.587 0.871 4.538-0.537 0.681-0.871 1.529-0.871 2.462 0 2.206 1.794 4 4 4h0.263c0.512 1.979 1.759 3.661 3.437 4.736l-0.46 1.377-2.714 0.452c-1.842 0.307-3.483 1.254-4.677 2.67L12 20.505 0.755 33H4v12h14v8h3.051C21.558 58.598 26.272 63 32 63s10.442-4.402 10.949-10H46v-8c1.302 0 2.402-0.839 2.816-2h4.369c0.414 1.161 1.514 2 2.816 2s2.402-0.839 2.816-2H60c1.654 0 3-1.346 3-3v-1.36C63 37.214 61.985 35.977 60.589 35.698zM37.164 28.207l-2.377 4.161L33.42 31l2.929-2.929L37.164 28.207zM40.006 18v-4c1.103 0 2 0.897 2 2S41.108 18 40.006 18zM22.006 16c0-1.103 0.897-2 2-2v4C22.903 18 22.006 17.103 22.006 16zM24.883 12h-0.877c-0.503 0-0.979 0.104-1.423 0.274-0.265-0.919-0.577-2.225-0.577-3.274 0-1.103 0.897-2 2-2h0.5l1.081-1.442C26.788 3.956 28.701 3 30.703 3c0.747 0 1.482 0.129 2.185 0.385l6.579 2.392c1.519 0.552 2.539 2.009 2.539 3.625 0 0.315-0.039 0.629-0.111 0.919l-0.519 1.936C40.946 12.099 40.489 12 40.006 12h-0.877l-0.384-0.096c-2.209-0.552-4.29-1.473-6.185-2.736l-0.555-0.37-0.555 0.37c-1.896 1.264-3.977 2.184-6.186 2.736L24.883 12zM26.006 18v-4.221c2.124-0.558 4.139-1.428 6-2.589 1.86 1.162 3.875 2.031 6 2.589V18c0 3.309-2.692 6-6.001 6C28.697 24 26.006 21.309 26.006 18zM32.006 26c0.866 0 1.698-0.143 2.48-0.398l0.376 1.128-2.856 2.856L29.15 26.73l0.376-1.128C30.307 25.857 31.14 26 32.006 26zM27.663 28.071L30.592 31l-1.367 1.367-2.378-4.16L27.663 28.071zM12 23.495L18.755 31H5.245L12 23.495zM6 33h12v10h-3v-6H9v6H6V33zM13 43h-2v-4h2V43zM32 61c-4.963 0-9-4.037-9-9s4.037-9 9-9 9 4.037 9 9S36.963 61 32 61zM44 51h-1.051C42.442 45.402 37.728 41 32 41s-10.442 4.402-10.949 10H20v-6-1V33h3.245l-2.036-2.262c0.875-1.143 2.126-1.906 3.54-2.171l4.037 7.065 3.219-3.219 3.219 3.219 4.036-7.065c1.434 0.268 2.705 1.046 3.582 2.216C43.554 31.731 43.954 32.857 44 34v1.18l-2.588 0.518C40.015 35.977 39 37.214 39 38.64V40c0 1.654 1.346 3 3 3h1.184c0.169 0.474 0.449 0.889 0.816 1.22V51zM46 43c-0.552 0-1-0.448-1-1s0.448-1 1-1 1 0.448 1 1S46.552 43 46 43zM56 43c-0.552 0-1-0.448-1-1s0.448-1 1-1 1 0.448 1 1S56.552 43 56 43zM61 40c0 0.552-0.448 1-1 1h-1.184c-0.414-1.161-1.514-2-2.816-2s-2.402 0.839-2.816 2h-4.369c-0.414-1.161-1.514-2-2.816-2s-2.402 0.839-2.816 2H42c-0.552 0-1-0.448-1-1v-1.36c0-0.476 0.338-0.888 0.804-0.98l4.013-0.803 0.774-3.1C46.703 33.312 47.102 33 47.562 33h6.877c0.46 0 0.858 0.312 0.971 0.757l0.774 3.1 4.014 0.803C60.662 37.752 61 38.164 61 38.64V40z" fill="#000000" data-fill-palette-color="accent"></path></g></svg></g></svg></g><g></g></svg></g><defs></defs></svg><rect width="395.52" height="235.79714740680672" fill="none" stroke="none" visibility="hidden"></rect></g></svg></g></svg>